<?xml version="1.0" encoding="utf-8" ?>
<svg xmlns="http://www.w3.org/2000/svg" xmlns:xlink="http://www.w3.org/1999/xlink" width="1024" height="1024">
	<path fill="#FEFEFE" d="M0 0L1024 0L1024 1024L0 1024L0 0Z"/>
	<path d="M249.402 419.404C244.97 414.889 235.035 408.004 232.525 402.799L232.943 402.115C233.906 402.129 234.351 402.39 235.086 402.959C241.729 408.108 247.879 414.59 254.148 420.244C262.306 427.603 271.195 434.684 278.794 442.576C286.244 450.316 291.733 460.394 291.385 471.392C291.115 479.943 287.612 488.259 281.294 494.08C275.56 499.362 267.839 502.506 260.001 502.259C255.95 502.132 252.305 501.036 248.588 499.502C244.736 497.808 241.112 495.407 237.88 492.728C233.83 489.371 225.06 481.93 224.581 476.481L224.997 476.11C226.777 476.994 235.091 487.334 238.647 490.271C245.618 496.03 254.456 500.446 263.728 499.424Q264.419 499.351 265.105 499.243Q265.792 499.135 266.472 498.994Q267.152 498.852 267.825 498.676Q268.497 498.501 269.16 498.292Q269.822 498.084 270.474 497.842Q271.125 497.601 271.764 497.327Q272.403 497.053 273.027 496.748Q273.651 496.443 274.259 496.107Q274.868 495.771 275.458 495.405Q276.049 495.039 276.621 494.645Q277.193 494.25 277.744 493.827Q278.296 493.404 278.825 492.954Q279.355 492.505 279.861 492.029Q280.368 491.553 280.85 491.053Q281.333 490.553 281.789 490.029Q282.246 489.506 282.676 488.96C287.572 482.736 289.618 474.556 288.702 466.733C286.878 451.155 274.487 442.161 263.748 432.433C258.988 428.121 254.439 423.387 249.402 419.404Z"/>
	<path d="M700.597 504.11C706.408 503.208 713.36 506.673 718.021 509.929C726.117 515.585 731.05 524.156 732.676 533.816C735.102 548.235 729.978 562.325 717.248 570.113C708.239 575.625 701.279 576.425 694.831 585.736C689.444 593.517 687.287 602.799 689.044 612.118C690.841 621.655 696.295 630.245 705.284 634.45C709.835 636.579 714.673 638.093 718.84 640.974C726.661 646.382 731.768 654.953 733.454 664.256Q733.62 665.169 733.74 666.089Q733.86 667.009 733.934 667.933Q734.008 668.858 734.036 669.786Q734.065 670.713 734.047 671.641Q734.029 672.568 733.965 673.494Q733.901 674.419 733.791 675.34Q733.681 676.262 733.525 677.176Q733.37 678.091 733.169 678.997Q732.968 679.902 732.722 680.797Q732.477 681.692 732.187 682.573Q731.897 683.454 731.564 684.32Q731.231 685.186 730.855 686.034Q730.479 686.882 730.061 687.711Q729.644 688.539 729.186 689.346Q728.727 690.153 728.23 690.936Q727.732 691.719 727.196 692.476C721.302 700.798 712.79 705.211 702.881 706.887C702.216 706.769 701.719 706.502 701.112 706.216L701.065 705.366C703.9 703.153 708.907 703.275 712.189 701.68C720.041 697.864 726.408 691.424 729.436 683.171C734.526 669.301 730.321 652.263 718.037 643.591C706.169 635.212 696.578 636.95 689.328 621.285C685.265 612.506 684.7 602.013 688.12 592.946C692.506 581.319 700.821 575.358 711.669 570.317C719.963 566.462 725.979 560.58 729.068 551.862C732.128 543.222 731.129 531.963 727.02 523.823C721.546 512.98 713.475 509.824 702.73 506.11C701.198 505.581 701.29 505.541 700.597 504.11Z"/>
	<path d="M340.783 152.704C354.805 151.749 369.591 156.187 380.195 165.529C393.387 177.15 402.363 199.188 394.976 216.296C390.405 226.882 382.429 227.319 383.428 241.768Q383.474 242.458 383.554 243.146Q383.634 243.833 383.749 244.515Q383.863 245.198 384.012 245.873Q384.161 246.549 384.343 247.217Q384.526 247.884 384.742 248.541Q384.957 249.199 385.206 249.845Q385.454 250.49 385.735 251.123Q386.015 251.756 386.327 252.373Q386.639 252.991 386.981 253.592Q387.324 254.193 387.696 254.777Q388.068 255.36 388.469 255.924Q388.87 256.488 389.299 257.031Q389.728 257.574 390.183 258.095Q390.639 258.615 391.12 259.113Q391.601 259.61 392.106 260.083Q392.612 260.555 393.14 261.002Q393.706 261.472 394.294 261.914Q394.882 262.356 395.491 262.768Q396.1 263.181 396.728 263.564Q397.356 263.947 398.002 264.298Q398.648 264.65 399.311 264.97Q399.973 265.291 400.65 265.578Q401.327 265.866 402.017 266.12Q402.707 266.375 403.409 266.595Q404.111 266.816 404.822 267.002Q405.534 267.189 406.254 267.34Q406.973 267.492 407.7 267.609Q408.426 267.725 409.157 267.806Q409.888 267.888 410.622 267.933Q411.357 267.979 412.092 267.989Q412.828 267.999 413.563 267.973Q414.298 267.947 415.031 267.886C427.736 266.892 438.801 258.351 441.459 245.576C442.223 241.904 441.03 233.575 443.257 230.989L443.939 231.635C445.44 236.478 444.815 242.655 443.528 247.528C441.361 255.731 435.847 262.168 428.568 266.376Q427.873 266.772 427.159 267.133Q426.444 267.494 425.713 267.819Q424.982 268.145 424.236 268.434Q423.49 268.722 422.73 268.974Q421.971 269.226 421.2 269.439Q420.429 269.653 419.648 269.829Q418.867 270.004 418.079 270.141Q417.29 270.278 416.496 270.375Q415.702 270.473 414.904 270.531Q414.106 270.589 413.306 270.608Q412.506 270.627 411.706 270.606Q410.906 270.585 410.108 270.525Q409.31 270.465 408.516 270.365Q407.722 270.266 406.934 270.127Q406.146 269.989 405.366 269.811Q404.586 269.634 403.815 269.418Q403.065 269.218 402.326 268.98Q401.588 268.742 400.862 268.468Q400.136 268.194 399.425 267.883Q398.713 267.573 398.019 267.227Q397.324 266.881 396.647 266.501Q395.971 266.12 395.314 265.707Q394.658 265.293 394.023 264.847Q393.388 264.4 392.776 263.923Q392.164 263.445 391.577 262.938Q390.99 262.43 390.43 261.894Q389.869 261.357 389.336 260.793Q388.803 260.229 388.299 259.639Q387.794 259.049 387.321 258.435Q386.847 257.82 386.404 257.182Q385.962 256.545 385.552 255.886Q385.142 255.227 384.766 254.548C380.345 246.577 380.143 237.204 382.707 228.593L382.906 227.946C387.558 223.63 391.39 219.231 393.329 213.054C396.586 202.678 394.383 190.496 389.342 181.073C382.975 169.169 372.142 161.169 359.32 157.299C344.625 152.865 329.843 155.038 316.449 162.187C310.958 165.728 305.821 169.856 301.492 174.768Q300.564 175.823 299.69 176.923Q298.815 178.023 297.996 179.165Q297.177 180.306 296.415 181.487Q295.653 182.667 294.95 183.884Q294.247 185.101 293.605 186.35Q292.962 187.6 292.382 188.88Q291.802 190.16 291.286 191.467Q290.77 192.773 290.319 194.104Q289.867 195.435 289.482 196.786Q289.097 198.137 288.779 199.506Q288.461 200.875 288.21 202.257Q287.96 203.64 287.778 205.033Q287.596 206.426 287.482 207.827Q287.369 209.227 287.325 210.632Q287.281 212.036 287.306 213.441Q287.331 214.846 287.425 216.248C288.278 229.692 294.182 245.113 304.224 254.404C308.606 258.458 313.736 261.619 318.197 265.572C325.777 272.29 330.774 281.364 331.248 291.586C331.686 301.014 328.396 310.773 321.917 317.69Q321.404 318.244 320.863 318.772Q320.323 319.3 319.757 319.801Q319.191 320.301 318.601 320.773Q318.011 321.245 317.398 321.687Q316.785 322.128 316.151 322.539Q315.517 322.95 314.864 323.329Q314.21 323.707 313.538 324.053Q312.866 324.399 312.178 324.71Q311.49 325.022 310.787 325.299Q310.085 325.577 309.369 325.819Q308.653 326.06 307.926 326.266Q307.199 326.472 306.463 326.642Q305.727 326.812 304.983 326.944Q304.24 327.077 303.49 327.173Q302.741 327.268 301.987 327.326Q301.234 327.384 300.479 327.405C297.006 327.496 290.024 327.313 287.49 324.89L287.553 323.979C289.392 322.789 299.432 325.051 302.92 324.78C310.033 324.226 316.879 320.008 321.38 314.609Q321.895 313.984 322.379 313.334Q322.862 312.684 323.314 312.011Q323.765 311.338 324.182 310.643Q324.6 309.949 324.982 309.235Q325.365 308.521 325.712 307.789Q326.059 307.057 326.37 306.309Q326.681 305.56 326.954 304.798Q327.228 304.035 327.463 303.26Q327.699 302.485 327.896 301.699Q328.093 300.913 328.251 300.118Q328.409 299.324 328.528 298.522Q328.647 297.721 328.726 296.915Q328.806 296.108 328.845 295.299Q328.884 294.49 328.884 293.68Q328.884 292.87 328.843 292.06Q328.803 291.251 328.723 290.445C327.235 273.851 316.698 268.06 305.172 258.422C293.374 248.555 286.21 232.469 284.852 217.333C283.473 201.956 289.034 185.712 298.902 173.936C309.937 160.767 323.847 154.189 340.783 152.704Z"/>
	<path fill="#ECBC5A" d="M411.565 318.123C419.235 317.675 426.083 318.715 432.608 323.064C439.353 327.56 444.092 335.322 445.54 343.254Q445.677 344.037 445.776 344.826Q445.875 345.614 445.936 346.407Q445.996 347.199 446.019 347.994Q446.041 348.788 446.024 349.583Q446.008 350.377 445.953 351.17Q445.898 351.963 445.805 352.752Q445.712 353.542 445.581 354.326Q445.449 355.11 445.28 355.886Q445.111 356.663 444.905 357.43Q444.698 358.198 444.454 358.954Q444.211 359.711 443.931 360.455Q443.651 361.199 443.336 361.928Q443.02 362.657 442.669 363.371Q442.319 364.084 441.934 364.78Q441.549 365.475 441.131 366.151Q440.713 366.827 440.263 367.482C435.09 374.873 427.78 378.389 419.123 379.856C411.715 380.291 404.982 379.462 398.602 375.353Q397.959 374.94 397.337 374.496Q396.715 374.052 396.116 373.578Q395.517 373.103 394.942 372.6Q394.367 372.096 393.818 371.565Q393.268 371.034 392.746 370.476Q392.224 369.918 391.729 369.336Q391.235 368.753 390.771 368.146Q390.306 367.539 389.872 366.91Q389.438 366.281 389.035 365.632Q388.633 364.982 388.263 364.313Q387.893 363.644 387.557 362.958Q387.221 362.272 386.919 361.57Q386.617 360.868 386.351 360.152Q386.084 359.436 385.853 358.707Q385.622 357.979 385.427 357.24Q385.233 356.501 385.075 355.753C383.432 347.628 385.39 338.371 389.996 331.492C395.037 323.964 402.84 319.8 411.565 318.123Z"/>
	<path fill="#FEFEFE" d="M411.593 321.116C417.952 320.402 424.613 321.69 430.114 324.982C436.405 328.745 440.576 334.925 442.357 341.968C444.239 349.411 443.39 357.335 439.267 363.923C434.971 370.79 428.166 374.714 420.471 376.474C413.232 377.642 405.465 376.259 399.296 372.204C393.298 368.262 389.435 362.055 388.044 355.069C386.547 347.55 387.878 339.638 392.168 333.223C396.786 326.319 403.655 322.668 411.593 321.116Z"/>
	<path d="M655.776 410.129C663.395 409.52 670.558 410.712 677.115 414.83Q677.765 415.246 678.394 415.693Q679.023 416.14 679.629 416.617Q680.236 417.094 680.818 417.601Q681.4 418.108 681.956 418.642Q682.513 419.177 683.042 419.738Q683.572 420.299 684.073 420.886Q684.574 421.473 685.046 422.083Q685.518 422.694 685.959 423.327Q686.401 423.96 686.81 424.614Q687.22 425.268 687.597 425.941Q687.974 426.614 688.317 427.305Q688.661 427.996 688.97 428.703Q689.279 429.41 689.553 430.131Q689.827 430.853 690.065 431.587Q690.303 432.321 690.505 433.065Q690.707 433.81 690.872 434.564Q691.042 435.301 691.175 436.045Q691.308 436.789 691.403 437.539Q691.499 438.289 691.557 439.043Q691.614 439.797 691.634 440.553Q691.655 441.309 691.637 442.065Q691.619 442.821 691.563 443.575Q691.508 444.329 691.415 445.079Q691.321 445.829 691.191 446.574Q691.06 447.319 690.893 448.056Q690.725 448.793 690.521 449.521Q690.316 450.249 690.076 450.966Q689.835 451.683 689.559 452.387Q689.283 453.091 688.972 453.78Q688.661 454.469 688.316 455.142Q687.971 455.815 687.593 456.469Q687.214 457.124 686.804 457.759C681.741 465.688 674.283 470.379 665.199 472.377C656.813 473.312 648.942 471.799 641.907 466.989Q641.274 466.548 640.663 466.077Q640.052 465.605 639.465 465.104Q638.878 464.604 638.317 464.074Q637.755 463.545 637.221 462.989Q636.686 462.433 636.179 461.851Q635.672 461.27 635.195 460.664Q634.717 460.058 634.27 459.429Q633.822 458.8 633.407 458.15Q632.991 457.5 632.607 456.831Q632.224 456.161 631.874 455.474Q631.524 454.786 631.208 454.082Q630.893 453.378 630.612 452.659Q630.331 451.941 630.086 451.209Q629.841 450.477 629.633 449.735Q629.424 448.992 629.252 448.24Q629.08 447.488 628.945 446.728Q628.808 445.978 628.708 445.222Q628.608 444.466 628.545 443.706Q628.482 442.946 628.457 442.184Q628.431 441.422 628.443 440.66Q628.454 439.898 628.503 439.137Q628.552 438.376 628.639 437.618Q628.725 436.861 628.848 436.108Q628.972 435.356 629.131 434.61Q629.291 433.865 629.488 433.128Q629.684 432.391 629.916 431.665Q630.148 430.938 630.415 430.224Q630.683 429.51 630.985 428.81Q631.287 428.11 631.623 427.426Q631.959 426.741 632.328 426.074Q632.697 425.407 633.098 424.758Q633.5 424.11 633.932 423.482C639.247 415.888 646.766 411.694 655.776 410.129Z"/>
	<path fill="#FEFEFE" d="M655.102 412.604C662.403 412.213 669.064 412.619 675.482 416.64Q676.083 417.016 676.665 417.421Q677.247 417.826 677.809 418.259Q678.37 418.692 678.91 419.153Q679.45 419.613 679.966 420.099Q680.482 420.585 680.974 421.096Q681.466 421.607 681.932 422.141Q682.398 422.675 682.838 423.232Q683.277 423.789 683.689 424.366Q684.1 424.944 684.483 425.541Q684.866 426.138 685.219 426.753Q685.571 427.368 685.894 427.999Q686.216 428.631 686.507 429.278Q686.798 429.924 687.057 430.585Q687.316 431.245 687.542 431.917Q687.768 432.589 687.961 433.272Q688.154 433.954 688.313 434.645Q688.483 435.348 688.617 436.058Q688.75 436.769 688.848 437.485Q688.945 438.202 689.006 438.922Q689.067 439.642 689.091 440.365Q689.115 441.088 689.102 441.811Q689.089 442.533 689.04 443.255Q688.99 443.976 688.904 444.694Q688.818 445.412 688.695 446.124Q688.572 446.837 688.413 447.542Q688.255 448.247 688.06 448.944Q687.865 449.64 687.636 450.325Q687.406 451.011 687.141 451.684Q686.877 452.357 686.579 453.015Q686.281 453.674 685.949 454.316Q685.618 454.959 685.254 455.584Q684.89 456.209 684.495 456.814C679.861 464.006 672.98 468.149 664.747 469.934Q663.492 470.125 662.226 470.208Q660.96 470.291 659.691 470.264Q658.422 470.238 657.16 470.102Q655.898 469.967 654.653 469.723Q653.407 469.479 652.187 469.129Q650.968 468.779 649.782 468.325Q648.597 467.871 647.455 467.317Q646.314 466.762 645.224 466.112Q644.605 465.752 644.005 465.362Q643.405 464.972 642.825 464.553Q642.245 464.133 641.687 463.686Q641.129 463.238 640.593 462.762Q640.058 462.287 639.547 461.786Q639.037 461.284 638.552 460.758Q638.066 460.232 637.608 459.682Q637.15 459.132 636.72 458.56Q636.29 457.988 635.888 457.396Q635.487 456.803 635.116 456.191Q634.745 455.579 634.405 454.949Q634.065 454.319 633.757 453.673Q633.449 453.027 633.174 452.366Q632.898 451.706 632.656 451.032Q632.414 450.359 632.206 449.674Q631.998 448.989 631.824 448.295Q631.645 447.6 631.501 446.896Q631.357 446.193 631.249 445.483Q631.14 444.773 631.068 444.059Q630.995 443.344 630.958 442.627Q630.922 441.91 630.921 441.192Q630.92 440.474 630.956 439.757Q630.991 439.039 631.062 438.325Q631.134 437.61 631.241 436.9Q631.348 436.19 631.49 435.487Q631.633 434.783 631.81 434.087Q631.988 433.391 632.2 432.705Q632.412 432.019 632.659 431.345Q632.906 430.67 633.185 430.009Q633.466 429.348 633.778 428.702Q634.091 428.055 634.436 427.426Q634.781 426.796 635.157 426.184C639.782 418.724 646.686 414.517 655.102 412.604Z"/>
	<path d="M246.774 608.165C242.45 609.97 238.1 611.392 233.396 611.741C225.412 612.333 217.886 609.543 211.885 604.349C205.368 598.708 201.345 590.957 200.759 582.333C200.189 573.937 202.707 565.457 208.286 559.089Q208.827 558.475 209.397 557.888Q209.968 557.301 210.567 556.744Q211.167 556.186 211.793 555.659Q212.419 555.133 213.071 554.638Q213.723 554.143 214.399 553.681Q215.075 553.219 215.773 552.792Q216.471 552.364 217.189 551.972Q217.908 551.58 218.645 551.224Q219.382 550.869 220.136 550.55Q220.89 550.232 221.659 549.951Q222.428 549.671 223.21 549.429Q223.992 549.188 224.785 548.985Q225.578 548.783 226.38 548.62Q227.182 548.458 227.991 548.336Q228.801 548.213 229.615 548.132Q230.43 548.05 231.247 548.009C240.8 547.609 248.516 551.658 255.312 558.044C261.344 565.519 264.798 573.84 263.711 583.589Q263.63 584.361 263.51 585.127Q263.39 585.894 263.232 586.653Q263.074 587.413 262.878 588.164Q262.683 588.915 262.449 589.655Q262.216 590.395 261.946 591.122Q261.677 591.85 261.371 592.563Q261.065 593.276 260.724 593.973Q260.382 594.669 260.007 595.348Q259.631 596.027 259.222 596.687Q258.813 597.346 258.371 597.984Q257.93 598.622 257.457 599.237Q256.984 599.852 256.481 600.443Q255.978 601.033 255.446 601.598Q254.913 602.163 254.354 602.7Q253.794 603.238 253.208 603.746Q252.623 604.255 252.012 604.734Q249.542 606.676 246.774 608.165Z"/>
	<path fill="#FEFEFE" d="M228.194 550.579C233.887 550.202 239.139 550.64 244.37 553.058Q245.035 553.366 245.683 553.707Q246.332 554.048 246.962 554.422Q247.593 554.795 248.203 555.2Q248.814 555.605 249.404 556.04Q249.993 556.475 250.56 556.939Q251.127 557.403 251.67 557.896Q252.213 558.388 252.73 558.907Q253.247 559.426 253.737 559.97Q254.228 560.515 254.69 561.083Q255.152 561.652 255.585 562.243Q256.018 562.834 256.421 563.447Q256.823 564.059 257.195 564.691Q257.566 565.322 257.905 565.972Q258.244 566.622 258.549 567.288Q258.855 567.954 259.126 568.634Q259.398 569.315 259.635 570.008C262.218 577.632 261.86 586.208 258.144 593.406C253.696 602.021 245.934 606.455 237.015 609.155C230.219 610.134 223.995 609.183 218.04 605.652C211.265 601.635 205.882 595.051 204.024 587.327C202.16 579.577 203.419 570.921 207.665 564.149C212.38 556.63 219.75 552.499 228.194 550.579Z"/>
	<path d="M453.606 526.571C447.379 521 443.429 514.527 442.107 506.237C441.898 504.922 441.851 501.859 441.286 500.792C441.027 500.303 438.628 500.229 438.158 500.201L437.61 499.494L437.874 498.178C438.92 497.618 439.723 497.578 440.883 497.475C441.91 495.555 441.632 492.532 442.131 490.359C444.362 480.636 451.661 473.303 461.13 470.465Q461.787 470.274 462.453 470.117Q463.118 469.959 463.791 469.834Q464.463 469.709 465.141 469.617Q465.819 469.525 466.501 469.467Q467.182 469.408 467.866 469.384Q468.55 469.359 469.234 469.368Q469.918 469.377 470.601 469.419Q471.283 469.462 471.963 469.538Q472.643 469.614 473.318 469.723Q473.994 469.832 474.663 469.975Q475.332 470.117 475.993 470.292Q476.654 470.468 477.306 470.675Q477.958 470.882 478.599 471.122Q479.24 471.361 479.868 471.631Q480.497 471.902 481.111 472.203Q481.725 472.504 482.324 472.835Q482.886 473.141 483.431 473.475Q483.976 473.809 484.504 474.17Q485.031 474.532 485.539 474.92Q486.048 475.308 486.535 475.722Q487.023 476.135 487.489 476.573Q487.955 477.012 488.398 477.473Q488.841 477.934 489.259 478.418Q489.678 478.901 490.071 479.405Q490.465 479.909 490.832 480.433Q491.199 480.957 491.538 481.498Q491.878 482.04 492.19 482.599Q492.501 483.157 492.784 483.731Q493.066 484.305 493.319 484.892Q493.572 485.479 493.794 486.079Q494.016 486.679 494.208 487.289Q494.399 487.899 494.559 488.518C496.956 497.603 496.164 509.723 491.322 517.921C489.206 521.504 486.269 524.617 483.076 527.264C483.133 532.426 482.963 537.742 483.301 542.886Q483.367 544.257 483.408 545.628C483.561 550.981 482.576 555.82 478.653 559.74Q478.131 560.267 477.558 560.739Q476.985 561.21 476.368 561.622Q475.751 562.034 475.095 562.382Q474.44 562.73 473.753 563.01Q473.066 563.29 472.354 563.5Q471.642 563.709 470.913 563.847Q470.184 563.984 469.444 564.047Q468.705 564.11 467.963 564.099Q467.246 564.087 466.534 564.004Q465.821 563.921 465.121 563.767Q464.42 563.614 463.738 563.392Q463.056 563.17 462.4 562.881Q461.743 562.593 461.118 562.241Q460.494 561.889 459.907 561.476Q459.32 561.064 458.777 560.595Q458.234 560.127 457.74 559.607C452.99 554.657 453.354 548.8 453.491 542.447L453.606 526.571Z"/>
	<path fill="#FEFEFE" d="M483.736 500.459C485.526 500.378 487.24 500.214 488.996 500.622C489.982 501.798 489.739 502.363 489.752 503.864C488.199 503.963 486.724 504.034 485.173 503.901C483.85 502.749 484.02 502.149 483.736 500.459Z"/>
	<path fill="#FEFEFE" d="M473.899 500.493C475.559 500.479 477.366 500.116 479.001 500.346C479.995 500.486 480.095 500.667 480.69 501.403L480.327 503.859C478.498 503.523 476.712 503.963 474.845 503.649C473.811 502.522 474.002 501.985 473.899 500.493Z"/>
	<path fill="#F0D9D5" d="M458.171 500.199C459.471 500.157 460.729 500.135 462.028 500.242C463.038 501.234 462.969 501.798 463.233 503.162L462.452 503.857C460.764 503.964 458.911 504.279 457.325 503.606C456.746 502.371 456.899 502.152 457.152 500.787L458.171 500.199Z"/>
	<path fill="#F0D9D5" d="M448.092 500.416C450.272 500.396 452.566 499.817 454.667 500.562C455.767 501.745 455.569 502.324 455.69 503.899C453.591 503.726 451.638 504.086 449.539 503.699C448.289 502.574 448.404 502.03 448.092 500.416Z"/>
	<path fill="#F0D9D5" d="M465.171 500.34C467.268 500.338 469.415 499.876 471.45 500.524C472.584 501.715 472.396 502.272 472.542 503.873C470.49 503.908 468.52 504.304 466.486 503.849C465.173 502.721 465.395 502.016 465.171 500.34Z"/>
	<path fill="#FEFEFE" d="M456.47 529.1Q457.304 529.491 458.145 529.865C465.907 533.304 472.658 532.368 480.271 529.438C480.479 536.596 482.38 549.999 478.403 555.874C475.862 558.593 472.668 560.756 468.848 560.934C465.58 561.087 462.014 559.861 459.723 557.492C454.096 551.674 456.335 536.671 456.47 529.1Z"/>
	<path fill="#FEFEFE" d="M443.819 500.304C444.996 500.542 444.494 500.279 445.343 501.055C445.548 502.91 445.501 504.664 445.413 506.526C460.9 506.52 476.818 507.327 492.234 506.03C492.277 506.24 492.34 506.447 492.363 506.66C492.905 511.786 488.643 518.084 485.379 521.66C480.94 525.894 475.613 529.037 469.344 529.337C463.12 529.636 457.165 526.726 452.795 522.425C447.146 516.863 443.805 508.192 443.819 500.304Z"/>
	<path fill="#F15F4A" d="M466.06 472.139C472.919 471.68 479.351 473.168 484.652 477.745C490.853 483.099 492.719 489.787 493.176 497.634C486.333 497.473 479.471 497.538 472.625 497.503L443.76 497.501C444.315 491.969 445.384 486.643 448.756 482.053C452.956 476.337 459.203 473.221 466.06 472.139Z"/>
	<path fill="#F15F4A" d="M185.016 421.674Q182.381 410.567 179.288 399.578C175.255 385.112 170.175 370.857 178.632 356.914C183.298 349.222 191.202 343.815 199.941 341.82Q200.661 341.656 201.388 341.528Q202.115 341.4 202.847 341.308Q203.58 341.217 204.316 341.163Q205.052 341.108 205.79 341.091Q206.528 341.073 207.266 341.093Q208.004 341.113 208.74 341.17Q209.476 341.226 210.208 341.32Q210.94 341.414 211.667 341.544Q212.394 341.674 213.113 341.841Q213.832 342.007 214.542 342.21Q215.252 342.412 215.951 342.65Q216.649 342.888 217.335 343.16Q218.021 343.433 218.693 343.74Q219.364 344.047 220.019 344.387Q220.675 344.727 221.312 345.099Q221.949 345.472 222.567 345.876Q223.244 346.312 223.899 346.781Q224.553 347.249 225.184 347.75Q225.815 348.25 226.42 348.781Q227.026 349.312 227.604 349.872Q228.183 350.432 228.733 351.019Q229.283 351.607 229.804 352.221Q230.324 352.835 230.814 353.474Q231.304 354.113 231.762 354.776Q232.22 355.438 232.644 356.122Q233.069 356.806 233.459 357.51Q233.85 358.215 234.205 358.937Q234.56 359.66 234.88 360.399Q235.199 361.138 235.482 361.892Q235.764 362.646 236.009 363.413Q236.254 364.18 236.461 364.958Q236.668 365.736 236.837 366.523C239.868 381.259 229.427 409.26 224.562 424.052C223.235 428.087 220.53 433.19 220.181 437.394C218.588 440.579 217.481 444.126 216.091 447.416C214.3 451.656 211.589 456.595 206.998 458.271C205.179 458.935 203.27 458.765 201.575 457.844C193.293 453.347 188.077 431.003 185.016 421.674Z"/>
	<path fill="#FEFEFE" d="M203.53 352.083C207.897 351.731 212.112 352.317 215.963 354.497C220.517 357.076 223.946 361.644 225.315 366.679Q225.444 367.148 225.55 367.623Q225.656 368.098 225.738 368.578Q225.82 369.058 225.878 369.541Q225.936 370.025 225.969 370.51Q226.003 370.996 226.012 371.483Q226.021 371.969 226.006 372.456Q225.991 372.942 225.951 373.427Q225.911 373.913 225.848 374.395Q225.784 374.878 225.696 375.356Q225.608 375.835 225.497 376.309Q225.385 376.783 225.25 377.25Q225.114 377.718 224.956 378.178Q224.797 378.638 224.616 379.09Q224.435 379.542 224.231 379.984Q224.027 380.426 223.802 380.857Q223.576 381.289 223.329 381.708C220.126 387.134 215.222 389.693 209.364 391.294C204.643 391.738 200.232 391.301 196.048 388.891Q195.251 388.427 194.503 387.888Q193.754 387.348 193.062 386.739Q192.37 386.129 191.741 385.455Q191.111 384.781 190.55 384.049Q189.99 383.317 189.503 382.533Q189.016 381.75 188.607 380.923Q188.199 380.096 187.873 379.233Q187.547 378.37 187.307 377.48C185.853 372.074 186.915 365.948 189.857 361.213C193.069 356.044 197.743 353.427 203.53 352.083Z"/>
	<path fill="#F15F4A" d="M788.644 797.652C792.025 797.396 795.268 797.446 798.595 798.131C806.56 799.771 813.564 804.289 817.984 811.178C825.683 823.178 823.275 836.661 820.5 849.817C817.307 864.957 807.37 908.238 794.208 916.804C793.652 916.976 793.482 917.04 792.859 917.17C790.74 917.611 788.636 917.396 786.804 916.163C774.639 907.98 762.65 858.859 760.203 843.962C758.278 832.247 758.111 821.152 765.403 811.176C771.175 803.279 779.139 799.193 788.644 797.652Z"/>
	<path fill="#FEFEFE" d="M788.131 808.081C792.592 807.683 796.823 808.379 800.726 810.652Q801.16 810.904 801.581 811.178Q802.001 811.452 802.408 811.746Q802.815 812.041 803.206 812.355Q803.597 812.67 803.972 813.003Q804.347 813.337 804.705 813.689Q805.063 814.041 805.403 814.41Q805.743 814.779 806.064 815.165Q806.385 815.551 806.686 815.953Q806.987 816.354 807.268 816.771Q807.549 817.187 807.808 817.616Q808.068 818.046 808.306 818.488Q808.543 818.93 808.759 819.384Q808.974 819.837 809.167 820.301Q809.359 820.764 809.528 821.237Q809.697 821.71 809.842 822.19Q809.987 822.671 810.108 823.158Q810.227 823.643 810.32 824.134Q810.414 824.625 810.483 825.12Q810.552 825.615 810.596 826.113Q810.639 826.611 810.658 827.11Q810.676 827.609 810.669 828.109Q810.662 828.609 810.63 829.107Q810.597 829.606 810.54 830.102Q810.482 830.599 810.399 831.092Q810.317 831.585 810.209 832.073Q810.101 832.56 809.969 833.042Q809.837 833.524 809.68 833.999Q809.523 834.473 809.343 834.939Q809.162 835.405 808.958 835.862Q808.755 836.318 808.528 836.763Q808.301 837.208 808.052 837.642Q807.803 838.075 807.532 838.495C804.143 843.76 799.358 846.226 793.409 847.481C788.799 847.684 784.693 847.456 780.555 845.18Q780.125 844.939 779.708 844.677Q779.292 844.414 778.889 844.131Q778.486 843.847 778.099 843.543Q777.711 843.24 777.339 842.916Q776.968 842.592 776.614 842.25Q776.259 841.908 775.923 841.548Q775.587 841.188 775.27 840.811Q774.953 840.434 774.655 840.042Q774.358 839.649 774.081 839.241Q773.804 838.834 773.549 838.413Q773.293 837.992 773.06 837.558Q772.827 837.124 772.616 836.679Q772.405 836.234 772.218 835.778Q772.03 835.323 771.866 834.858Q771.703 834.394 771.563 833.921Q771.423 833.449 771.308 832.97Q771.185 832.459 771.089 831.943Q770.992 831.427 770.922 830.907Q770.851 830.386 770.808 829.863Q770.764 829.34 770.747 828.815Q770.729 828.29 770.739 827.765Q770.748 827.24 770.784 826.716Q770.82 826.192 770.883 825.671Q770.946 825.149 771.035 824.632Q771.124 824.114 771.239 823.602Q771.354 823.09 771.495 822.584Q771.636 822.078 771.802 821.58Q771.969 821.082 772.16 820.593Q772.352 820.104 772.568 819.625Q772.784 819.147 773.024 818.68Q773.264 818.213 773.527 817.758Q773.791 817.304 774.077 816.864C777.392 811.769 782.351 809.298 788.131 808.081Z"/>
	<path fill="#F15F4A" d="M725.206 274.196C728.671 273.894 732.342 274.294 735.678 275.258C743.61 277.551 750.856 283.437 754.823 290.657Q755.6 292.077 756.224 293.571Q756.848 295.064 757.313 296.615Q757.777 298.165 758.078 299.756Q758.378 301.347 758.51 302.96C759.63 318.039 752.185 341.273 747.898 355.806C744.404 367.649 739.419 389.55 728.025 395.767C724.858 396.067 721.906 395.4 719.321 393.469C709.257 385.952 695.949 327.134 694.256 312.862C693.124 303.319 694.611 293.479 700.885 285.874C706.971 278.497 715.921 275.117 725.206 274.196Z"/>
	<path fill="#FEFEFE" d="M722.773 286.566C726.943 286.26 730.593 286.158 734.538 287.876Q734.977 288.071 735.406 288.288Q735.835 288.505 736.252 288.745Q736.669 288.984 737.073 289.244Q737.477 289.504 737.867 289.785Q738.258 290.065 738.633 290.366Q739.008 290.666 739.367 290.985Q739.727 291.305 740.069 291.642Q740.411 291.979 740.736 292.334Q741.06 292.689 741.366 293.059Q741.672 293.43 741.958 293.816Q742.245 294.202 742.511 294.603Q742.777 295.003 743.022 295.416Q743.267 295.83 743.49 296.255Q743.714 296.681 743.915 297.117Q744.117 297.554 744.295 298Q744.474 298.446 744.629 298.901C746.345 303.802 746.131 309.387 743.663 313.997C740.789 319.366 735.855 322.226 730.225 323.966C726.481 324.598 722.959 324.281 719.416 322.852Q718.965 322.67 718.523 322.466Q718.082 322.261 717.652 322.034Q717.222 321.807 716.804 321.558Q716.386 321.309 715.981 321.038Q715.577 320.768 715.187 320.477Q714.797 320.186 714.422 319.876Q714.048 319.565 713.69 319.236Q713.332 318.906 712.992 318.559Q712.651 318.211 712.329 317.847Q712.007 317.482 711.704 317.101Q711.402 316.72 711.119 316.324Q710.836 315.929 710.574 315.518Q710.312 315.109 710.072 314.686Q709.832 314.263 709.613 313.828Q709.395 313.393 709.2 312.947Q709.004 312.502 708.832 312.047C706.948 307.082 707.378 301.645 709.731 296.915C712.541 291.265 716.975 288.443 722.773 286.566Z"/>
	<path d="M454.146 153.902C459.867 146.626 466.262 141.78 475.75 140.598C484.292 139.534 492.606 141.739 499.39 147.059C506.568 152.688 510.497 160.754 511.407 169.75Q511.546 171.056 511.576 172.37C515.21 172.598 518.924 172.906 522.558 172.602C526.782 172.248 530.967 171.126 535.185 170.875Q535.995 170.825 536.807 170.821Q537.618 170.817 538.429 170.859Q539.239 170.902 540.046 170.991Q540.853 171.08 541.653 171.216Q542.453 171.351 543.244 171.532Q544.036 171.713 544.815 171.939Q545.595 172.165 546.36 172.435Q547.125 172.705 547.874 173.019Q548.622 173.333 549.351 173.689Q550.081 174.045 550.788 174.443Q551.496 174.84 552.18 175.277Q552.863 175.715 553.521 176.191Q554.178 176.666 554.807 177.179Q555.436 177.692 556.035 178.24Q556.634 178.788 557.2 179.37Q557.766 179.951 558.298 180.564C563.708 186.694 566.862 194.606 566.261 202.828C565.671 210.884 561.988 219.077 555.696 224.234C549.332 229.45 542.216 229.969 534.919 232.853C523.861 237.225 516.78 248.594 515.473 260.131C514.521 268.524 516.832 278.386 522.152 285.034C529.024 293.62 540.309 297.687 550.97 298.614C590.248 302.031 634.514 276.535 667.285 257.13C681.63 248.637 695.802 239.192 711.62 233.644C736.245 225.008 766.787 224.49 792.022 230.774C814.944 236.482 835.377 247.68 850.744 265.83C870.648 289.338 879.72 319.15 877.12 349.763C874.273 383.28 856.127 412.759 844.564 443.753C819.075 512.076 811.681 576.965 837.181 646.6C845.998 670.677 858.919 694.525 875.411 714.228C883.631 724.049 893.416 732.195 901.753 741.802C922.493 765.7 932.231 798.532 929.483 829.857C926.901 859.285 912.853 887.55 890.034 906.473Q888.463 907.761 886.846 908.99Q885.229 910.22 883.568 911.389Q881.907 912.559 880.205 913.667Q878.502 914.775 876.761 915.821Q875.019 916.866 873.24 917.847Q871.461 918.828 869.648 919.743Q867.835 920.659 865.989 921.508Q864.143 922.356 862.268 923.137Q860.393 923.917 858.49 924.629Q856.587 925.341 854.66 925.982Q852.733 926.624 850.783 927.195Q848.834 927.766 846.865 928.265Q844.896 928.765 842.91 929.192Q840.924 929.619 838.924 929.973Q836.923 930.328 834.912 930.609Q832.9 930.89 830.879 931.097C816.724 932.613 800.654 931.438 786.285 931.406L694.453 931.194L370.75 931.018L184.534 930.812L124.598 930.8C117.9 930.774 106.056 931.511 100.002 930.599C99.3627 930.502 99.227 930.422 98.698 930.214L98.5825 929.293C98.9468 928.897 99.2782 928.468 99.7229 928.162C106.655 928.769 113.839 928.441 120.797 928.454L157.485 928.477L270.485 928.414Q268.865 927.836 267.281 927.163Q265.698 926.49 264.158 925.724Q262.617 924.958 261.125 924.102Q259.633 923.246 258.194 922.302Q256.756 921.359 255.375 920.332Q253.995 919.305 252.679 918.197Q251.362 917.09 250.114 915.906Q248.865 914.723 247.689 913.467C236.604 901.576 233.672 887.768 234.183 872.016L220.942 872.043C220.953 867.875 221.27 863.792 222.011 859.686C225.597 839.821 236.282 824.6 252.739 813.235C247.864 799.625 241.017 786.421 235.146 773.197L196.419 686.529C188.328 666.763 178.628 647.449 169.654 628.057L129.666 541.234C118.984 518.153 107.976 495.112 98.1104 471.67C91.3002 455.489 91.0767 438.096 97.7861 421.802C105.905 402.085 120.495 389.939 139.829 381.961C146.515 379.409 164.335 375.324 170.724 378.43C171.632 378.872 171.787 379.055 172.281 379.958C170.816 381.056 160.221 380.248 157.512 380.489C152.911 380.898 148.335 381.875 143.89 383.115C125.517 389.738 109.897 401.283 101.44 419.341C94.4372 434.291 93.3717 452.091 99.1387 467.626C102.468 476.595 106.826 485.309 110.801 494.016Q120.932 516.429 131.329 538.72C153.371 586.392 175.785 633.95 197.168 681.92L255.064 811.182C259.562 808.56 264.296 806.355 268.992 804.114L268.962 785.008C266 785.016 263.139 784.88 260.194 784.568C259.582 780.778 259.243 776.897 259.662 773.066C260.518 765.224 264.415 758.331 270.635 753.475Q272.059 752.381 273.61 751.477Q275.161 750.572 276.815 749.873Q278.468 749.173 280.197 748.689Q281.926 748.205 283.703 747.945C289.732 747.059 296.21 747.532 302.31 747.554L334.094 747.685L363.812 747.711C369.349 747.717 375.349 747.323 380.833 748.088C388.746 749.192 395.484 753.84 400.231 760.14C404.732 766.113 407.032 774.32 405.872 781.745C405.53 783.932 405.448 784.171 403.611 785.429C402.952 787.148 403.578 789.167 403.9 790.936C407.419 789.597 410.943 788.599 414.588 787.663Q414.827 749.075 414.615 710.486C409.01 710.342 403.387 710.388 397.78 710.347L397.955 683.009C397.985 677.516 398.302 671.853 397.674 666.396C394.922 665.461 392.209 664.291 390.083 662.25C385.837 658.172 386.044 652.859 386.071 647.432C386.099 641.979 386.297 634.205 392.774 632.62C394.374 632.228 395.925 632.135 397.15 630.917C397.708 629.529 397.784 628.254 397.854 626.763C398.207 619.229 397.596 611.512 397.647 603.952C397.695 596.968 398.806 584.784 397.677 578.339C397.376 576.62 395.512 577.034 394.911 575.242C396.161 574.252 397.406 574.411 398.972 574.253C402.841 571.025 405.762 566.405 409.46 562.906C421.825 551.209 437.158 545.795 453.491 542.447C453.354 548.8 452.99 554.657 457.74 559.607Q458.234 560.127 458.777 560.595Q459.32 561.064 459.907 561.476Q460.494 561.889 461.118 562.241Q461.743 562.593 462.4 562.881Q463.056 563.17 463.738 563.392Q464.42 563.614 465.121 563.767Q465.821 563.921 466.534 564.004Q467.246 564.087 467.963 564.099Q468.705 564.11 469.444 564.047Q470.184 563.984 470.913 563.847Q471.642 563.71 472.354 563.5Q473.066 563.29 473.753 563.01Q474.44 562.73 475.095 562.382Q475.751 562.034 476.368 561.622Q476.985 561.21 477.558 560.739Q478.131 560.267 478.653 559.74C482.576 555.82 483.561 550.981 483.408 545.628Q483.367 544.257 483.301 542.886C500.131 543.914 517.469 552.76 528.59 565.372C530.992 568.096 532.946 571.039 534.874 574.106C537.354 574.092 540.059 573.858 542.495 574.327C542.481 575.04 542.354 575.649 542.214 576.345C541.391 576.758 540.583 577.18 539.784 577.637C539.396 583.88 539.687 590.239 539.675 596.499L539.55 631.353C542.224 631.53 544.44 631.964 546.658 633.564C549.948 635.938 551.735 639.437 552.381 643.378C553.261 648.741 553.164 656.287 549.785 660.743C547.025 664.382 543.92 664.981 539.665 665.554C539.456 680.534 539.545 695.527 539.518 710.509L519.527 710.584L519.58 854.557C538.235 854.579 556.531 851.254 570.511 837.998C577.492 831.378 581.98 822.631 584.62 813.461C591.177 790.687 585.924 765.736 579.357 743.513C576.281 733.104 572.758 722.973 570.756 712.272C568.869 702.183 569.301 692.133 569.637 681.939C576.136 681.446 582.902 681.884 589.446 681.749C596.375 673.189 604.66 668.937 615.204 666.476C617.397 665.964 620.032 665.504 621.95 667.095C626.543 670.905 625.271 703.832 625.025 711.155C624.894 715.061 624.23 719.543 621.236 722.31C615.419 724.27 598.245 716.32 591.614 714.474C593.267 720.698 595.109 726.571 597.929 732.383C606.872 750.814 623.042 768.979 625.225 789.816C625.839 795.681 624.992 801.296 623.898 807.05L624.584 807.257C641.662 812.538 656.51 823.262 664.926 839.246C668.309 845.673 673.151 859.718 670.175 866.9C669.134 869.412 666.957 870.13 664.573 870.978L663.883 871.217C663.306 874.114 663.795 877.334 663.796 880.289C663.8 886.843 661.405 894.046 658.532 899.898C651.115 915.011 638.861 923.487 623.311 928.804C640.889 928.305 658.501 928.752 676.085 928.787L770.057 928.98L804.228 929.098C816.613 929.143 828.657 929.449 840.897 927.043C858.314 923.618 875.931 915.235 889.385 903.619Q890.425 902.72 891.442 901.795Q892.458 900.87 893.452 899.92Q894.446 898.97 895.415 897.996Q896.385 897.021 897.33 896.023Q898.274 895.025 899.194 894.003Q900.114 892.981 901.008 891.937Q901.902 890.893 902.769 889.826Q903.637 888.76 904.477 887.673Q905.318 886.585 906.131 885.477Q906.944 884.368 907.729 883.24Q908.515 882.112 909.272 880.965Q910.028 879.817 910.756 878.651Q911.484 877.485 912.183 876.301Q912.882 875.117 913.55 873.917Q914.219 872.716 914.858 871.498Q915.497 870.281 916.105 869.048Q916.713 867.816 917.29 866.568Q917.867 865.32 918.413 864.059Q918.959 862.797 919.473 861.522Q919.987 860.248 920.469 858.96Q920.951 857.673 921.401 856.374Q921.851 855.075 922.268 853.765Q922.685 852.456 923.07 851.136Q923.454 849.816 923.806 848.487Q924.157 847.158 924.475 845.821Q924.793 844.484 925.078 843.139Q925.362 841.794 925.613 840.443Q925.864 839.091 926.081 837.734Q926.298 836.376 926.481 835.014Q926.664 833.652 926.813 832.285Q926.963 830.919 927.077 829.549Q927.192 828.179 927.273 826.807Q927.363 825.403 927.419 823.998Q927.475 822.593 927.497 821.186Q927.52 819.78 927.508 818.373Q927.497 816.967 927.453 815.561Q927.408 814.155 927.33 812.751Q927.251 811.346 927.14 809.944Q927.028 808.542 926.883 807.143Q926.737 805.744 926.559 804.349Q926.38 802.954 926.168 801.563Q925.956 800.172 925.711 798.787Q925.466 797.402 925.188 796.024Q924.911 794.645 924.6 793.273Q924.289 791.901 923.945 790.537Q923.602 789.173 923.226 787.818Q922.85 786.462 922.442 785.116Q922.033 783.77 921.593 782.434Q921.153 781.099 920.681 779.773Q920.209 778.448 919.706 777.135Q919.202 775.822 918.667 774.521Q918.133 773.22 917.567 771.932Q917.001 770.644 916.405 769.37Q915.809 768.096 915.182 766.837Q914.556 765.578 913.9 764.333Q913.243 763.089 912.557 761.861Q911.872 760.633 911.157 759.422Q910.442 758.211 909.698 757.017Q908.954 755.823 908.182 754.647Q907.41 753.471 906.61 752.314Q905.811 751.157 904.983 750.02Q904.156 748.882 903.302 747.765Q902.448 746.647 901.567 745.55Q900.687 744.453 899.78 743.378C892.677 735.077 884.033 728.128 876.807 719.831C832.969 669.499 813.238 597.958 819.914 532.063C823.075 500.862 831.556 471.063 842.498 441.782C853.999 411.004 872.56 381.457 874.741 348.066Q874.845 346.68 874.914 345.292Q874.984 343.904 875.019 342.514Q875.054 341.125 875.055 339.735Q875.056 338.345 875.023 336.956Q874.989 335.566 874.921 334.178Q874.854 332.79 874.751 331.404Q874.649 330.018 874.513 328.635Q874.377 327.252 874.206 325.872Q874.036 324.493 873.831 323.118Q873.627 321.743 873.389 320.374Q873.15 319.005 872.878 317.642Q872.606 316.279 872.3 314.923Q871.995 313.567 871.655 312.22Q871.316 310.872 870.944 309.533Q870.572 308.194 870.166 306.864Q869.761 305.535 869.323 304.216Q868.885 302.897 868.414 301.589Q867.944 300.281 867.441 298.985Q866.939 297.69 866.404 296.407Q865.87 295.124 865.303 293.854Q864.737 292.585 864.14 291.33Q863.543 290.075 862.915 288.835Q862.287 287.596 861.628 286.372Q860.97 285.148 860.281 283.94Q859.593 282.733 858.874 281.543Q858.156 280.353 857.409 279.182Q856.661 278.01 855.885 276.857Q855.109 275.704 854.305 274.57Q853.5 273.437 852.668 272.324Q851.836 271.211 850.977 270.118Q850.117 269.026 849.231 267.955Q848.345 266.885 847.433 265.836C832.449 248.916 812.286 238.254 790.464 233.054C764.88 226.957 733.991 228.012 709.241 237.142C697.015 241.652 686.113 249.223 674.911 255.741C639.698 276.231 594.367 304.071 552.207 301.177C540.725 300.389 529.291 296.828 521.542 287.873C515.364 280.734 512.059 270.184 512.828 260.792C513.861 248.17 522.04 235.249 534.018 230.448C541.45 227.468 548.532 227.165 554.94 221.525C560.214 216.883 563.293 209.93 563.765 202.963C564.302 195.055 561.698 188.063 556.42 182.198C545.747 170.336 535.854 174.084 522.496 175.123C518.864 175.406 515.114 175.055 511.482 174.825C510.579 179.484 509.499 183.984 507.167 188.163Q506.804 188.807 506.41 189.432Q506.015 190.057 505.591 190.662Q505.166 191.267 504.713 191.851Q504.259 192.434 503.777 192.994Q503.295 193.555 502.786 194.091Q502.277 194.627 501.743 195.137Q501.208 195.648 500.649 196.131Q500.09 196.615 499.508 197.07Q498.926 197.526 498.322 197.952Q497.718 198.378 497.094 198.775Q496.47 199.171 495.828 199.536Q495.185 199.901 494.525 200.234Q493.865 200.566 493.19 200.867Q492.514 201.167 491.825 201.433Q491.135 201.7 490.434 201.932Q489.732 202.164 489.02 202.362Q488.229 202.586 487.427 202.769Q486.625 202.953 485.815 203.096Q485.005 203.238 484.189 203.34Q483.373 203.442 482.553 203.502Q481.733 203.563 480.911 203.582Q480.088 203.601 479.266 203.578Q478.444 203.555 477.624 203.491Q476.804 203.427 475.989 203.321Q475.173 203.216 474.364 203.069Q473.554 202.923 472.754 202.736Q471.953 202.549 471.162 202.321Q470.372 202.094 469.594 201.827Q468.816 201.56 468.053 201.254Q467.29 200.948 466.543 200.604Q465.796 200.26 465.067 199.878Q464.338 199.497 463.63 199.079Q462.956 198.681 462.303 198.249Q461.65 197.818 461.019 197.355Q460.388 196.892 459.78 196.399Q459.173 195.905 458.59 195.383Q458.008 194.86 457.452 194.309Q456.896 193.758 456.368 193.18Q455.841 192.602 455.342 191.999Q454.843 191.396 454.375 190.769Q453.906 190.142 453.469 189.492Q453.033 188.843 452.628 188.173Q452.224 187.503 451.853 186.813Q451.483 186.124 451.147 185.417Q450.81 184.71 450.51 183.988Q450.209 183.265 449.944 182.529Q449.679 181.792 449.451 181.044Q449.223 180.295 449.032 179.536C446.681 170.043 449.233 161.94 454.146 153.902Z"/>
	<path fill="#ECBC5A" d="M464.308 856.057L473.022 856.028L473.014 869.092L464.277 869.039L464.308 856.057Z"/>
	<path fill="#FEFEFE" d="M615.489 668.864C616.975 668.882 618.917 668.87 620.211 669.725C621.235 670.401 621.782 671.408 622.057 672.566C623.208 677.416 623.2 710.75 622.311 716.116C622.105 717.361 621.544 718.277 620.883 719.332C619.373 719.941 618.342 720.371 616.666 720.203C616.401 719.927 616.039 719.719 615.871 719.376C614.92 717.425 615.439 674.227 615.489 668.864Z"/>
	<path fill="#FEFEFE" d="M418.582 901.586C424.364 901.131 451.803 900.514 455.986 901.676C457.901 902.208 459.421 903.213 460.322 905.017C461.064 906.502 461.668 908.252 461.136 909.877L459.875 910.28L416.389 910.153C416.456 906.822 416.047 904.105 418.582 901.586Z"/>
	<path fill="#FEFEFE" d="M539.078 635.064C540.529 634.94 542.025 634.748 543.434 635.213C545.861 636.015 547.593 637.914 548.623 640.2C550.663 644.721 550.382 652.323 548.649 656.875C547.56 659.737 545.859 660.937 543.134 662.127C541.731 662.372 540.443 662.551 539.042 662.18C537.106 661.669 535.606 660.297 534.611 658.594C532.142 654.367 532.369 646.526 533.589 641.856C534.514 638.312 535.958 636.873 539.078 635.064Z"/>
	<path fill="#FEFEFE" d="M394.615 634.415C395.403 634.393 396.221 634.372 397.002 634.496C399.884 634.954 402.52 636.861 404.017 639.325C406.541 643.475 406.475 650.902 405.159 655.513C404.186 658.924 402.639 660.327 399.562 661.945C398.247 662.271 397.161 662.486 395.807 662.261C393.839 661.935 392.172 660.935 391.067 659.264C387.797 654.317 388.715 644.947 389.699 639.34C391.191 637.357 392.622 635.907 394.615 634.415Z"/>
	<path fill="#FEFEFE" d="M498.702 901.25C504.459 901.218 510.205 901.127 515.953 901.54C519.304 904.291 520.424 906.286 521.749 910.312C514.034 910.626 506.219 910.362 498.494 910.35L475.571 910.261C475.509 907.864 475.116 905.021 477 903.179C480.667 899.595 493.333 901.235 498.702 901.25Z"/>
	<path fill="#FEFEFE" d="M475.537 913.074C491.013 913.065 506.713 912.437 522.154 913.246C522.336 916.32 522.186 919.217 521.912 922.28C506.54 922.809 490.911 922.373 475.526 922.246L475.537 913.074Z"/>
	<path fill="#FEFEFE" d="M416.027 912.589C430.99 913.463 446.238 912.971 461.237 913.007L461.246 922.136C457.219 923.403 422.982 922.47 415.953 922.453C415.867 919.165 415.962 915.877 416.027 912.589Z"/>
	<path fill="#FEFEFE" d="M266.683 872.01C279.703 871.882 292.736 872.013 305.757 872.019C305.602 878.68 304.627 883.372 300.267 888.59C296.596 891.648 292.415 893.697 287.59 894.089C282.521 894.5 277.73 892.946 273.891 889.606C268.428 884.852 267.03 878.903 266.683 872.01Z"/>
	<path fill="#FEFEFE" d="M589.867 870.984C602.665 870.852 615.479 870.991 628.278 870.998C628.253 877.84 627.706 883.091 623.037 888.524C619.352 891.788 614.835 894.205 609.842 894.484C604.662 894.773 599.597 892.677 595.895 889.09C590.596 883.954 589.866 877.938 589.867 870.984Z"/>
	<path fill="#FEFEFE" d="M455.6 577.187Q466.873 577.049 478.146 577.172Q478.277 598.258 478.07 619.343C475.8 617.085 473.921 614.495 471.978 611.959C470.708 610.045 469.517 608.171 467.907 606.516L466.864 606.514C462.478 609.168 458.847 615.702 455.852 619.861C455.396 605.661 455.624 591.395 455.6 577.187Z"/>
	<path fill="#FEFEFE" d="M464.07 710.576L472.675 710.565L472.747 808.618C472.79 823.44 473.447 838.417 472.876 853.219C470.024 853.327 467.159 853.22 464.306 853.176C463.631 837.263 464.094 821.128 464.064 805.196L464.07 710.576Z"/>
	<path fill="#FEFEFE" d="M413.268 790.988L414.17 791.175C415.338 793.073 414.74 846.376 414.751 853.944C405.763 853.092 399.049 851.402 391.654 846.102C387.409 842.522 383.907 838.228 382.146 832.882C379.786 825.719 381.226 817.948 384.726 811.429C390.753 800.206 401.498 794.534 413.268 790.988Z"/>
	<path fill="#F15F4A" d="M398.972 574.253C402.841 571.025 405.762 566.405 409.46 562.906C421.825 551.209 437.158 545.795 453.491 542.447C453.354 548.8 452.99 554.657 457.74 559.607Q458.234 560.127 458.777 560.595Q459.32 561.064 459.907 561.476Q460.494 561.889 461.118 562.241Q461.743 562.593 462.4 562.881Q463.056 563.17 463.738 563.392Q464.42 563.614 465.121 563.767Q465.821 563.921 466.534 564.004Q467.246 564.087 467.963 564.099Q468.705 564.11 469.444 564.047Q470.184 563.984 470.913 563.847Q471.642 563.71 472.354 563.5Q473.066 563.29 473.753 563.01Q474.44 562.73 475.095 562.382Q475.751 562.034 476.368 561.622Q476.985 561.21 477.558 560.739Q478.131 560.267 478.653 559.74C482.576 555.82 483.561 550.981 483.408 545.628Q483.367 544.257 483.301 542.886C500.131 543.914 517.469 552.76 528.59 565.372C530.992 568.096 532.946 571.039 534.874 574.106C537.354 574.092 540.059 573.858 542.495 574.327C520.815 575.198 498.776 574.406 477.058 574.389C451.071 574.369 424.935 574.993 398.972 574.253Z"/>
	<path fill="#FEFEFE" d="M455.677 155.787C460.499 149.283 466.725 144.394 474.98 143.148C482.874 141.956 491.288 143.883 497.644 148.759C503.754 153.446 507.648 160.666 508.618 168.269C509.627 176.173 507.411 184.502 502.4 190.726C497.838 196.393 490.894 200.301 483.608 200.945Q481.128 201.141 478.642 201.219Q477.071 201.106 475.52 200.839Q473.968 200.573 472.449 200.155Q470.931 199.737 469.461 199.173Q467.991 198.608 466.584 197.902C459.488 194.302 454.387 188.065 452.033 180.509C449.208 171.445 451.38 163.784 455.677 155.787Z"/>
	<path fill="#ECBC5A" d="M390.784 784.755L400.631 784.716L401.116 792.129Q396.812 794.445 392.969 797.465C385.281 803.538 379.615 812.29 378.567 822.157C377.744 829.906 380.156 837.224 385.031 843.208C392.727 852.655 403.077 855.66 414.767 856.853L414.767 869.034L364.131 868.994C363.477 852.747 365.588 839.727 358.392 824.302C353.957 815.352 346.865 808.654 337.899 804.312C318.051 794.7 292.378 795.803 271.947 802.873Q271.659 793.894 271.562 784.91L390.784 784.755Z"/>
	<path fill="#F0D9D5" d="M475.497 710.533L516.843 710.554C516.539 733.629 516.969 756.76 516.983 779.842L516.931 898.577C503.468 898.367 489.721 897.912 476.283 898.674C475.72 890.915 475.949 882.962 475.905 875.18L475.767 833.867L475.497 710.533Z"/>
	<path fill="#ECBC5A" d="M294.348 800.694C297.615 800.182 301.435 800.292 304.758 800.282C319.999 800.235 337.295 803.859 348.396 815.055C363.208 829.992 361.577 849.684 361.454 869.02L291.25 869.04C268.655 869.078 245.968 869.539 223.385 869.153C225.371 854.601 228.45 842.041 237.735 830.226C251.48 812.733 272.684 803.296 294.348 800.694Z"/>
	<path fill="#FEFEFE" d="M519.725 871.375Q538.421 871.178 557.116 871.427C556.061 881.327 557.528 890.772 561.84 899.785C568.762 914.254 580.393 923.262 595.274 928.487C579.248 929.084 563.001 928.565 546.948 928.635L439.035 928.765L301.829 928.43Q303.681 927.85 305.489 927.147Q307.298 926.443 309.055 925.62Q310.812 924.797 312.51 923.857Q314.208 922.917 315.838 921.865Q317.469 920.814 319.025 919.655Q320.582 918.496 322.057 917.234Q323.531 915.973 324.918 914.616Q326.305 913.259 327.597 911.811C338.538 899.619 340.195 887.605 339.424 871.905L414.864 871.825C414.727 880.118 415.392 888.491 414.983 896.767C414.731 901.872 413.638 906.923 413.129 912.007C412.688 916.406 412.848 920.832 412.995 925.243C429.992 925.462 447.303 925.703 464.271 924.937C464.594 916.62 465.512 910.125 462.286 902.345C462.878 901.23 463.7 899.881 463.921 898.638C464.757 893.952 463.971 877.472 464.058 871.677C467.049 871.582 470.054 871.716 473.045 871.782C473.061 881.245 473.717 890.719 473.741 900.142C473.758 906.558 471.914 913.049 472.337 919.987C472.407 921.132 472.636 923.826 473.686 924.531C475.919 926.028 518.626 925.283 524.512 924.946C525.655 915.416 525.571 909.199 519.936 901.2C519.585 891.279 519.757 881.303 519.725 871.375Z"/>
	<path fill="#F0D9D5" d="M417.495 710.545L461.161 710.52L461.228 898.578Q439.544 898.43 417.86 898.516L417.495 710.545Z"/>
	<path fill="#ECBC5A" d="M612.086 670.035C612.576 670.172 612.232 670.043 612.943 670.724L613.124 718.578C606.501 716.366 598.115 712.218 591.246 711.632C590.078 711.533 589.862 711.421 588.926 712.185C587.292 725.367 609.597 756.902 616.09 769.867C622.782 783.231 624.835 794.712 620.023 808.988C630.86 812.174 641.119 816.159 649.63 823.839C659.546 832.789 668.179 846.839 668.585 860.522C668.663 863.161 668.497 865.569 666.656 867.598C657.727 868.416 648.503 867.917 639.533 867.933L591.25 868.059L519.747 868.503L519.722 857.501C527.726 857.004 535.805 856.653 543.66 854.922C558.282 851.699 571.391 843.779 579.508 831.001C595.793 805.363 590.425 773.592 582.723 746.034C579.81 735.612 576.182 725.368 574.086 714.736C572.916 708.8 572.116 702.637 572.161 696.577C572.187 693.004 573.557 689.117 572.765 685.713L572.574 684.929C575.11 683.769 587.436 684.482 590.945 684.501C596.271 676.798 603.279 672.649 612.086 670.035Z"/>
	<path fill="#FEFEFE" d="M480.94 577.191C499.434 576.722 518.187 576.795 536.684 577.231C537.258 595.453 536.979 613.751 536.888 631.98C535.816 632.86 534.714 633.746 533.772 634.768C528.86 640.093 529.948 648.145 530.165 654.816C531.201 659.427 533.183 662.1 536.827 665.067C536.515 679.323 536.74 693.615 536.739 707.876L400.607 707.666L400.514 665.52C402.085 664.597 403.534 663.618 404.772 662.261C408.48 658.196 409.03 652.465 408.738 647.213C408.337 639.981 405.866 636.292 400.626 631.644Q400.436 613.626 400.462 595.607C400.451 589.924 399.809 583.391 400.631 577.802L401.643 577.226C418.609 576.787 435.656 577.091 452.63 577.165L452.74 609.66C452.762 613.775 452.019 619.966 453.096 623.904C453.384 624.958 453.632 625.04 454.565 625.56C459.035 620.825 462.798 615.408 466.99 610.422C470.064 613.697 476.156 623.824 479.676 624.887L480.442 624.422C481.965 620.24 480.949 584.88 480.94 577.191Z"/>
</svg>
